  0
SECTION
  2
HEADER
  9
$ACADVER
  1
AC1018
  9
$ACADMAINTVER
 70
     0
  9
$DWGCODEPAGE
  3
ANSI_932
  9
$INSBASE
 10
0.0
 20
0.0
 30
0.0
  9
$EXTMIN
 10
1.000000000000000E+20
 20
1.000000000000000E+20
 30
1.000000000000000E+20
  9
$EXTMAX
 10
-1.000000000000000E+20
 20
-1.000000000000000E+20
 30
-1.000000000000000E+20
  9
$LIMMIN
 10
0.0
 20
0.0
  9
$LIMMAX
 10
12.0
 20
9.0
  9
$ORTHOMODE
 70
     0
  9
$REGENMODE
 70
     1
  9
$FILLMODE
 70
     1
  9
$QTEXTMODE
 70
     0
  9
$MIRRTEXT
 70
     1
  9
$LTSCALE
 40
1.0
  9
$ATTMODE
 70
     1
  9
$TEXTSIZE
 40
0.2
  9
$TRACEWID
 40
0.05
  9
$TEXTSTYLE
  7
Standard
  9
$CLAYER
  8
0
  9
$CELTYPE
  6
ByLayer
  9
$CECOLOR
 62
   256
  9
$CELTSCALE
 40
1.0
  9
$DISPSILH
 70
     0
  9
$DIMSCALE
 40
1.0
  9
$DIMASZ
 40
0.18
  9
$DIMEXO
 40
0.0625
  9
$DIMDLI
 40
0.38
  9
$DIMRND
 40
0.0
  9
$DIMDLE
 40
0.0
  9
$DIMEXE
 40
0.18
  9
$DIMTP
 40
0.0
  9
$DIMTM
 40
0.0
  9
$DIMTXT
 40
0.18
  9
$DIMCEN
 40
0.09
  9
$DIMTSZ
 40
0.0
  9
$DIMTOL
 70
     0
  9
$DIMLIM
 70
     0
  9
$DIMTIH
 70
     1
  9
$DIMTOH
 70
     1
  9
$DIMSE1
 70
     0
  9
$DIMSE2
 70
     0
  9
$DIMTAD
 70
     0
  9
$DIMZIN
 70
     0
  9
$DIMBLK
  1

  9
$DIMASO
 70
     1
  9
$DIMSHO
 70
     1
  9
$DIMPOST
  1

  9
$DIMAPOST
  1

  9
$DIMALT
 70
     0
  9
$DIMALTD
 70
     2
  9
$DIMALTF
 40
25.4
  9
$DIMLFAC
 40
1.0
  9
$DIMTOFL
 70
     0
  9
$DIMTVP
 40
0.0
  9
$DIMTIX
 70
     0
  9
$DIMSOXD
 70
     0
  9
$DIMSAH
 70
     0
  9
$DIMBLK1
  1

  9
$DIMBLK2
  1

  9
$DIMSTYLE
  2
Standard
  9
$DIMCLRD
 70
     0
  9
$DIMCLRE
 70
     0
  9
$DIMCLRT
 70
     0
  9
$DIMTFAC
 40
1.0
  9
$DIMGAP
 40
0.09
  9
$DIMJUST
 70
     0
  9
$DIMSD1
 70
     0
  9
$DIMSD2
 70
     0
  9
$DIMTOLJ
 70
     1
  9
$DIMTZIN
 70
     0
  9
$DIMALTZ
 70
     0
  9
$DIMALTTZ
 70
     0
  9
$DIMUPT
 70
     0
  9
$DIMDEC
 70
     4
  9
$DIMTDEC
 70
     4
  9
$DIMALTU
 70
     2
  9
$DIMALTTD
 70
     2
  9
$DIMTXSTY
  7
Standard
  9
$DIMAUNIT
 70
     0
  9
$DIMADEC
 70
     0
  9
$DIMALTRND
 40
0.0
  9
$DIMAZIN
 70
     0
  9
$DIMDSEP
 70
    46
  9
$DIMATFIT
 70
     3
  9
$DIMFRAC
 70
     0
  9
$DIMLDRBLK
  1

  9
$DIMLUNIT
 70
     2
  9
$DIMLWD
 70
    -2
  9
$DIMLWE
 70
    -2
  9
$DIMTMOVE
 70
     0
  9
$LUNITS
 70
     2
  9
$LUPREC
 70
     4
  9
$SKETCHINC
 40
0.1
  9
$FILLETRAD
 40
0.5
  9
$AUNITS
 70
     0
  9
$AUPREC
 70
     0
  9
$MENU
  1
.
  9
$ELEVATION
 40
0.0
  9
$PELEVATION
 40
0.0
  9
$THICKNESS
 40
0.0
  9
$LIMCHECK
 70
     0
  9
$CHAMFERA
 40
0.5
  9
$CHAMFERB
 40
0.5
  9
$CHAMFERC
 40
1.0
  9
$CHAMFERD
 40
0.0
  9
$SKPOLY
 70
     0
  9
$TDCREATE
 40
2458411.716689815
  9
$TDUCREATE
 40
2458411.966689815
  9
$TDUPDATE
 40
2458411.716689826
  9
$TDUUPDATE
 40
2458411.966689826
  9
$TDINDWG
 40
0.0000000116
  9
$TDUSRTIMER
 40
0.0000000116
  9
$USRTIMER
 70
     1
  9
$ANGBASE
 50
0.0
  9
$ANGDIR
 70
     0
  9
$PDMODE
 70
     0
  9
$PDSIZE
 40
0.0
  9
$PLINEWID
 40
0.0
  9
$SPLFRAME
 70
     0
  9
$SPLINETYPE
 70
     6
  9
$SPLINESEGS
 70
     8
  9
$HANDSEED
  5
8E
  9
$SURFTAB1
 70
     6
  9
$SURFTAB2
 70
     6
  9
$SURFTYPE
 70
     6
  9
$SURFU
 70
     6
  9
$SURFV
 70
     6
  9
$UCSBASE
  2

  9
$UCSNAME
  2

  9
$UCSORG
 10
0.0
 20
0.0
 30
0.0
  9
$UCSXDIR
 10
1.0
 20
0.0
 30
0.0
  9
$UCSYDIR
 10
0.0
 20
1.0
 30
0.0
  9
$UCSORTHOREF
  2

  9
$UCSORTHOVIEW
 70
     0
  9
$UCSORGTOP
 10
0.0
 20
0.0
 30
0.0
  9
$UCSORGBOTTOM
 10
0.0
 20
0.0
 30
0.0
  9
$UCSORGLEFT
 10
0.0
 20
0.0
 30
0.0
  9
$UCSORGRIGHT
 10
0.0
 20
0.0
 30
0.0
  9
$UCSORGFRONT
 10
0.0
 20
0.0
 30
0.0
  9
$UCSORGBACK
 10
0.0
 20
0.0
 30
0.0
  9
$PUCSBASE
  2

  9
$PUCSNAME
  2

  9
$PUCSORG
 10
0.0
 20
0.0
 30
0.0
  9
$PUCSXDIR
 10
1.0
 20
0.0
 30
0.0
  9
$PUCSYDIR
 10
0.0
 20
1.0
 30
0.0
  9
$PUCSORTHOREF
  2

  9
$PUCSORTHOVIEW
 70
     0
  9
$PUCSORGTOP
 10
0.0
 20
0.0
 30
0.0
  9
$PUCSORGBOTTOM
 10
0.0
 20
0.0
 30
0.0
  9
$PUCSORGLEFT
 10
0.0
 20
0.0
 30
0.0
  9
$PUCSORGRIGHT
 10
0.0
 20
0.0
 30
0.0
  9
$PUCSORGFRONT
 10
0.0
 20
0.0
 30
0.0
  9
$PUCSORGBACK
 10
0.0
 20
0.0
 30
0.0
  9
$USERI1
 70
     0
  9
$USERI2
 70
     0
  9
$USERI3
 70
     0
  9
$USERI4
 70
     0
  9
$USERI5
 70
     0
  9
$USERR1
 40
0.0
  9
$USERR2
 40
0.0
  9
$USERR3
 40
0.0
  9
$USERR4
 40
0.0
  9
$USERR5
 40
0.0
  9
$WORLDVIEW
 70
     1
  9
$SHADEDGE
 70
     3
  9
$SHADEDIF
 70
    70
  9
$TILEMODE
 70
     1
  9
$MAXACTVP
 70
    64
  9
$PINSBASE
 10
0.0
 20
0.0
 30
0.0
  9
$PLIMCHECK
 70
     0
  9
$PEXTMIN
 10
1.000000000000000E+20
 20
1.000000000000000E+20
 30
1.000000000000000E+20
  9
$PEXTMAX
 10
-1.000000000000000E+20
 20
-1.000000000000000E+20
 30
-1.000000000000000E+20
  9
$PLIMMIN
 10
0.0
 20
0.0
  9
$PLIMMAX
 10
12.0
 20
9.0
  9
$UNITMODE
 70
     0
  9
$VISRETAIN
 70
     1
  9
$PLINEGEN
 70
     0
  9
$PSLTSCALE
 70
     1
  9
$TREEDEPTH
 70
  3020
  9
$CMLSTYLE
  2
Standard
  9
$CMLJUST
 70
     0
  9
$CMLSCALE
 40
1.0
  9
$PROXYGRAPHICS
 70
     1
  9
$MEASUREMENT
 70
     0
  9
$CELWEIGHT
370
    -1
  9
$ENDCAPS
280
     0
  9
$JOINSTYLE
280
     0
  9
$LWDISPLAY
290
     1
  9
$INSUNITS
 70
     1
  9
$HYPERLINKBASE
  1

  9
$STYLESHEET
  1

  9
$XEDIT
290
     1
  9
$CEPSNTYPE
380
     0
  9
$PSTYLEMODE
290
     1
  9
$FINGERPRINTGUID
  2
{A9958088-4A37-7748-37A9-12A12AAAD67E}
  9
$VERSIONGUID
  2
{FAEB1C32-E019-11D5-929B-00C0DF256EC4}
  9
$EXTNAMES
290
     1
  9
$PSVPSCALE
 40
0.0
  9
$OLESTARTUP
290
     0
  9
$SORTENTS
280
   127
  9
$INDEXCTL
280
     0
  9
$HIDETEXT
280
     1
  9
$XCLIPFRAME
290
     0
  9
$HALOGAP
280
     0
  9
$OBSCOLOR
 70
   257
  9
$OBSLTYPE
280
     0
  9
$INTERSECTIONDISPLAY
280
     0
  9
$INTERSECTIONCOLOR
 70
   257
  9
$DIMASSOC
280
     2
  9
$PROJECTNAME
  1

  0
ENDSEC
  0
SECTION
  2
CLASSES
  0
CLASS
  1
ACDBDICTIONARYWDFLT
  2
AcDbDictionaryWithDefault
  3
ObjectDBX Classes
 90
        0
 91
        3
280
     0
281
     0
  0
CLASS
  1
VISUALSTYLE
  2
AcDbVisualStyle
  3
ObjectDBX Classes
 90
     4095
 91
        3
280
     0
281
     0
  0
ENDSEC
  0
SECTION
  2
TABLES
  0
TABLE
  2
VPORT
  5
8
330
0
100
AcDbSymbolTable
 70
     1
  0
VPORT
  5
29
330
8
100
AcDbSymbolTableRecord
100
AcDbViewportTableRecord
  2
*Active
 70
     0
 10
0.0
 20
0.0
 11
1.0
 21
1.0
 12
0.0
 22
0.0
 13
0.0
 23
0.0
 14
0.5
 24
0.5
 15
0.5
 25
0.5
 16
0.0
 26
0.0
 36
1.0
 17
500.0
 27
-100.0
 37
0.0
 40
200.0
 41
5.0
 42
50.0
 43
0.0
 44
0.0
 50
0.0
 51
0.0
 71
     0
 72
   100
 73
     1
 74
     3
 75
     0
 76
     0
 77
     0
 78
     0
281
     0
 65
     1
110
0.0
120
0.0
130
0.0
111
1.0
121
0.0
131
0.0
112
0.0
122
1.0
132
0.0
 79
     0
146
0.0
  0
ENDTAB
  0
TABLE
  2
LTYPE
  5
5
330
0
100
AcDbSymbolTable
 70
     1
  0
LTYPE
  5
14
330
5
100
AcDbSymbolTableRecord
100
AcDbLinetypeTableRecord
  2
ByBlock
 70
     0
  3

 72
    65
 73
     0
 40
0.0
  0
LTYPE
  5
15
330
5
100
AcDbSymbolTableRecord
100
AcDbLinetypeTableRecord
  2
ByLayer
 70
     0
  3

 72
    65
 73
     0
 40
0.0
  0
LTYPE
  5
16
330
5
100
AcDbSymbolTableRecord
100
AcDbLinetypeTableRecord
  2
Continuous
 70
     0
  3
Solid line
 72
    65
 73
     0
 40
0.0
  0
ENDTAB
  0
TABLE
  2
LAYER
  5
2
330
0
100
AcDbSymbolTable
 70
     2
  0
LAYER
  5
10
330
2
100
AcDbSymbolTableRecord
100
AcDbLayerTableRecord
  2
0
 70
     0
 62
     7
  6
Continuous
370
    -3
390
F
  0
LAYER
  5
3B
330
2
100
AcDbSymbolTableRecord
100
AcDbLayerTableRecord
  2
Layer 1
 70
     0
 62
     7
  6
Continuous
370
    -3
390
F
  0
ENDTAB
  0
TABLE
  2
STYLE
  5
3
330
0
100
AcDbSymbolTable
 70
     1
  0
STYLE
  5
11
330
3
100
AcDbSymbolTableRecord
100
AcDbTextStyleTableRecord
  2
Standard
 70
     0
 40
0.0
 41
1.0
 50
0.0
 71
     0
 42
0.2
  3
txt
  4

  0
ENDTAB
  0
TABLE
  2
VIEW
  5
6
330
0
100
AcDbSymbolTable
 70
     0
  0
ENDTAB
  0
TABLE
  2
UCS
  5
7
330
0
100
AcDbSymbolTable
 70
     0
  0
ENDTAB
  0
TABLE
  2
APPID
  5
9
330
0
100
AcDbSymbolTable
 70
     1
  0
APPID
  5
12
330
9
100
AcDbSymbolTableRecord
100
AcDbRegAppTableRecord
  2
ACAD
 70
     0
  0
ENDTAB
  0
TABLE
  2
DIMSTYLE
  5
A
330
0
100
AcDbSymbolTable
 70
     1
100
AcDbDimStyleTable
  0
DIMSTYLE
105
27
330
A
100
AcDbSymbolTableRecord
100
AcDbDimStyleTableRecord
  2
Standard
 70
     0
340
11
  0
ENDTAB
  0
TABLE
  2
BLOCK_RECORD
  5
1
330
0
100
AcDbSymbolTable
 70
     2
  0
BLOCK_RECORD
  5
1F
330
1
100
AcDbSymbolTableRecord
100
AcDbBlockTableRecord
  2
*Model_Space
340
22
  0
BLOCK_RECORD
  5
1B
330
1
100
AcDbSymbolTableRecord
100
AcDbBlockTableRecord
  2
*Paper_Space
340
1E
  0
BLOCK_RECORD
  5
23
330
1
100
AcDbSymbolTableRecord
100
AcDbBlockTableRecord
  2
*Paper_Space0
340
26
  0
BLOCK_RECORD
  5
3C
330
1
100
AcDbSymbolTableRecord
100
AcDbBlockTableRecord
  2
block 2
340
0
102
{BLKREFS
331
3D
102
}
  0
ENDTAB
  0
ENDSEC
  0
SECTION
  2
BLOCKS
  0
BLOCK
  5
20
330
1F
100
AcDbEntity
  8
0
100
AcDbBlockBegin
  2
*Model_Space
 70
     0
 71
     0
 10
0.0
 20
0.0
 30
0.0
  3
*Model_Space
  1

  0
ENDBLK
  5
21
330
1F
100
AcDbEntity
  8
0
100
AcDbBlockEnd
  0
BLOCK
  5
1C
330
1B
100
AcDbEntity
 67
     1
  8
0
100
AcDbBlockBegin
  2
*Paper_Space
 70
     0
 71
     0
 10
0.0
 20
0.0
 30
0.0
  3
*Paper_Space
  1

  0
ENDBLK
  5
1D
330
1B
100
AcDbEntity
 67
     1
  8
0
100
AcDbBlockEnd
  0
BLOCK
  5
24
330
23
100
AcDbEntity
  8
0
100
AcDbBlockBegin
  2
*Paper_Space0
 70
     0
 71
     0
 10
0.0
 20
0.0
 30
0.0
  3
*Paper_Space0
  1

  0
ENDBLK
  5
25
330
23
100
AcDbEntity
  8
0
100
AcDbBlockEnd
  0
BLOCK
  5
3E
330
3C
100
AcDbEntity
  8
0
100
AcDbBlockBegin
  2
block 2
 70
     0
 71
     0
 10
0.0
 20
0.0
 30
0.0
  3
block 2
  1

  0
SPLINE
  5
40
330
3C
100
AcDbEntity
  8
Layer 1
370
     0
100
AcDbSpline
210
0.0
220
0.0
230
1.0
 70
    11
 71
     3
 72
    50
 73
    46
 74
     0
 42
0.0000000001
 43
0.0000000001
 40
0.0
 40
0.0
 40
0.0
 40
0.0
 40
1.0
 40
1.0
 40
1.0
 40
2.0
 40
2.0
 40
2.0
 40
3.0
 40
3.0
 40
3.0
 40
4.0
 40
4.0
 40
4.0
 40
5.0
 40
5.0
 40
5.0
 40
6.0
 40
6.0
 40
6.0
 40
7.0
 40
7.0
 40
7.0
 40
8.0
 40
8.0
 40
8.0
 40
9.0
 40
9.0
 40
9.0
 40
10.0
 40
10.0
 40
10.0
 40
11.0
 40
11.0
 40
11.0
 40
12.0
 40
12.0
 40
12.0
 40
13.0
 40
13.0
 40
13.0
 40
14.0
 40
14.0
 40
14.0
 40
15.0
 40
15.0
 40
15.0
 40
15.0
 10
281.40576171875
 20
-138.0146484375
 30
0.0
 10
281.40576171875
 20
-141.1884765625
 30
0.0
 10
280.369140625
 20
-143.701171875
 30
0.0
 10
278.2978515625
 20
-145.552734375
 30
0.0
 10
276.2255859375
 20
-147.404296875
 30
0.0
 10
273.4267578125
 20
-148.330078125
 30
0.0
 10
269.900390625
 20
-148.330078125
 30
0.0
 10
269.900390625
 20
-148.330078125
 30
0.0
 10
253.50244140625
 20
-148.330078125
 30
0.0
 10
253.50244140625
 20
-148.330078125
 30
0.0
 10
253.50244140625
 20
-148.330078125
 30
0.0
 10
249.40283203125
 20
-137.486328125
 30
0.0
 10
249.40283203125
 20
-137.486328125
 30
0.0
 10
249.40283203125
 20
-137.486328125
 30
0.0
 10
266.9248046875
 20
-138.0146484375
 30
0.0
 10
266.9248046875
 20
-138.0146484375
 30
0.0
 10
269.17333984375
 20
-138.1474609375
 30
0.0
 10
270.29736328125
 20
-137.2001953125
 30
0.0
 10
270.29736328125
 20
-135.171875
 30
0.0
 10
270.29736328125
 20
-135.171875
 30
0.0
 10
270.29736328125
 20
-108.65625
 30
0.0
 10
270.29736328125
 20
-108.65625
 30
0.0
 10
270.29736328125
 20
-108.65625
 30
0.0
 10
224.67333984375
 20
-108.65625
 30
0.0
 10
224.67333984375
 20
-108.65625
 30
0.0
 10
221.23486328125
 20
-124.615234375
 30
0.0
 10
211.2060546875
 20
-139.2939453125
 30
0.0
 10
194.587890625
 20
-152.6943359375
 30
0.0
 10
194.587890625
 20
-152.6943359375
 30
0.0
 10
186.32275390625
 20
-144.296875
 30
0.0
 10
186.32275390625
 20
-144.296875
 30
0.0
 10
195.09423828125
 20
-137.9931640625
 30
0.0
 10
201.93798828125
 20
-130.86328125
 30
0.0
 10
206.853515625
 20
-122.90625
 30
0.0
 10
211.7685546875
 20
-114.9501953125
 30
0.0
 10
214.22607421875
 20
-106.9609375
 30
0.0
 10
214.22607421875
 20
-98.93701171875
 30
0.0
 10
214.22607421875
 20
-98.93701171875
 30
0.0
 10
214.22607421875
 20
-36.3203125
 30
0.0
 10
214.22607421875
 20
-36.3203125
 30
0.0
 10
214.22607421875
 20
-36.3203125
 30
0.0
 10
281.40576171875
 20
-36.3203125
 30
0.0
 10
281.40576171875
 20
-36.3203125
 30
0.0
 10
281.40576171875
 20
-36.3203125
 30
0.0
 10
281.40576171875
 20
-138.0146484375
 30
0.0
 10
281.40576171875
 20
-138.0146484375
 30
0.0
  0
POLYLINE
  5
41
330
3C
100
AcDbEntity
  8
Layer 1
370
     0
100
AcDb2dPolyline
 66
     1
 10
0.0
 20
0.0
 30
0.0
  0
VERTEX
  5
42
330
41
100
AcDbEntity
  8
Layer 1
370
     0
100
AcDbVertex
100
AcDb2dVertex
 10
270.29736328125
 20
-67.46337890625
 30
0.0
  0
VERTEX
  5
43
330
41
100
AcDbEntity
  8
Layer 1
370
     0
100
AcDbVertex
100
AcDb2dVertex
 10
270.29736328125
 20
-46.23828125
 30
0.0
  0
VERTEX
  5
44
330
41
100
AcDbEntity
  8
Layer 1
370
     0
100
AcDbVertex
100
AcDb2dVertex
 10
224.93798828125
 20
-46.23828125
 30
0.0
  0
VERTEX
  5
45
330
41
100
AcDbEntity
  8
Layer 1
370
     0
100
AcDbVertex
100
AcDb2dVertex
 10
224.93798828125
 20
-67.46337890625
 30
0.0
  0
VERTEX
  5
46
330
41
100
AcDbEntity
  8
Layer 1
370
     0
100
AcDbVertex
100
AcDb2dVertex
 10
270.29736328125
 20
-67.46337890625
 30
0.0
  0
SEQEND
  5
47
330
41
100
AcDbEntity
  8
Layer 1
370
     0
  0
POLYLINE
  5
48
330
3C
100
AcDbEntity
  8
Layer 1
370
     0
100
AcDb2dPolyline
 66
     1
 10
0.0
 20
0.0
 30
0.0
  0
VERTEX
  5
49
330
48
100
AcDbEntity
  8
Layer 1
370
     0
100
AcDbVertex
100
AcDb2dVertex
 10
270.29736328125
 20
-98.8046875
 30
0.0
  0
VERTEX
  5
4A
330
48
100
AcDbEntity
  8
Layer 1
370
     0
100
AcDbVertex
100
AcDb2dVertex
 10
270.29736328125
 20
-77.38134765625
 30
0.0
  0
VERTEX
  5
4B
330
48
100
AcDbEntity
  8
Layer 1
370
     0
100
AcDbVertex
100
AcDb2dVertex
 10
225.2021484375
 20
-77.38134765625
 30
0.0
  0
VERTEX
  5
4C
330
48
100
AcDbEntity
  8
Layer 1
370
     0
100
AcDbVertex
100
AcDb2dVertex
 10
224.93798828125
 20
-98.8046875
 30
0.0
  0
VERTEX
  5
4D
330
48
100
AcDbEntity
  8
Layer 1
370
     0
100
AcDbVertex
100
AcDb2dVertex
 10
270.29736328125
 20
-98.8046875
 30
0.0
  0
SEQEND
  5
4E
330
48
100
AcDbEntity
  8
Layer 1
370
     0
  0
SPLINE
  5
4F
330
3C
100
AcDbEntity
  8
Layer 1
370
     0
100
AcDbSpline
210
0.0
220
0.0
230
1.0
 70
    11
 71
     3
 72
    53
 73
    49
 74
     0
 42
0.0000000001
 43
0.0000000001
 40
0.0
 40
0.0
 40
0.0
 40
0.0
 40
1.0
 40
1.0
 40
1.0
 40
2.0
 40
2.0
 40
2.0
 40
3.0
 40
3.0
 40
3.0
 40
4.0
 40
4.0
 40
4.0
 40
5.0
 40
5.0
 40
5.0
 40
6.0
 40
6.0
 40
6.0
 40
7.0
 40
7.0
 40
7.0
 40
8.0
 40
8.0
 40
8.0
 40
9.0
 40
9.0
 40
9.0
 40
10.0
 40
10.0
 40
10.0
 40
11.0
 40
11.0
 40
11.0
 40
12.0
 40
12.0
 40
12.0
 40
13.0
 40
13.0
 40
13.0
 40
14.0
 40
14.0
 40
14.0
 40
15.0
 40
15.0
 40
15.0
 40
16.0
 40
16.0
 40
16.0
 40
16.0
 10
382.7041015625
 20
-58.0078125
 30
0.0
 10
379.39794921875
 20
-84.0166015625
 30
0.0
 10
375.0009765625
 20
-103.763671875
 30
0.0
 10
369.5126953125
 20
-117.2529296875
 30
0.0
 10
364.0244140625
 20
-130.7412109375
 30
0.0
 10
357.84228515625
 20
-137.486328125
 30
0.0
 10
350.9658203125
 20
-137.486328125
 30
0.0
 10
344.79345703125
 20
-137.486328125
 30
0.0
 10
339.041015625
 20
-133.19921875
 30
0.0
 10
333.7080078125
 20
-124.625
 30
0.0
 10
328.37353515625
 20
-116.0517578125
 30
0.0
 10
325.70703125
 20
-106.982421875
 30
0.0
 10
325.70703125
 20
-97.41650390625
 30
0.0
 10
325.70703125
 20
-86.79345703125
 30
0.0
 10
328.076171875
 20
-77.7451171875
 30
0.0
 10
332.8154296875
 20
-70.2734375
 30
0.0
 10
337.55322265625
 20
-62.8017578125
 30
0.0
 10
344.2314453125
 20
-56.84033203125
 30
0.0
 10
352.85009765625
 20
-52.3876953125
 30
0.0
 10
361.4677734375
 20
-47.935546875
 30
0.0
 10
371.17626953125
 20
-45.70947265625
 30
0.0
 10
381.9765625
 20
-45.70947265625
 30
0.0
 10
395.37646484375
 20
-45.70947265625
 30
0.0
 10
406.650390625
 20
-49.853515625
 30
0.0
 10
415.7978515625
 20
-58.14013671875
 30
0.0
 10
424.9443359375
 20
-66.42822265625
 30
0.0
 10
429.51806640625
 20
-77.62451171875
 30
0.0
 10
429.51806640625
 20
-91.72998046875
 30
0.0
 10
429.51806640625
 20
-103.32421875
 30
0.0
 10
426.20068359375
 20
-113.671875
 30
0.0
 10
419.56640625
 20
-122.7734375
 30
0.0
 10
412.931640625
 20
-131.876953125
 30
0.0
 10
403.39990234375
 20
-139.2275390625
 30
0.0
 10
390.96923828125
 20
-144.8251953125
 30
0.0
 10
390.96923828125
 20
-144.8251953125
 30
0.0
 10
383.365234375
 20
-133.4521484375
 30
0.0
 10
383.365234375
 20
-133.4521484375
 30
0.0
 10
394.296875
 20
-129.7939453125
 30
0.0
 10
402.76025390625
 20
-124.0634765625
 30
0.0
 10
408.755859375
 20
-116.2607421875
 30
0.0
 10
414.75
 20
-108.458984375
 30
0.0
 10
417.748046875
 20
-99.8857421875
 30
0.0
 10
417.748046875
 20
-90.53955078125
 30
0.0
 10
417.748046875
 20
-81.37158203125
 30
0.0
 10
414.45263671875
 20
-73.767578125
 30
0.0
 10
407.86328125
 20
-67.7275390625
 30
0.0
 10
401.2724609375
 20
-61.68896484375
 30
0.0
 10
392.88671875
 20
-58.44921875
 30
0.0
 10
382.7041015625
 20
-58.0078125
 30
0.0
  0
SPLINE
  5
50
330
3C
100
AcDbEntity
  8
Layer 1
370
     0
100
AcDbSpline
210
0.0
220
0.0
230
1.0
 70
    11
 71
     3
 72
    23
 73
    19
 74
     0
 42
0.0000000001
 43
0.0000000001
 40
0.0
 40
0.0
 40
0.0
 40
0.0
 40
1.0
 40
1.0
 40
1.0
 40
2.0
 40
2.0
 40
2.0
 40
3.0
 40
3.0
 40
3.0
 40
4.0
 40
4.0
 40
4.0
 40
5.0
 40
5.0
 40
5.0
 40
6.0
 40
6.0
 40
6.0
 40
6.0
 10
370.47119140625
 20
-59.26416015625
 30
0.0
 10
361.4345703125
 20
-60.9833984375
 30
0.0
 10
353.83056640625
 20
-65.259765625
 30
0.0
 10
347.65966796875
 20
-72.091796875
 30
0.0
 10
341.4873046875
 20
-78.9248046875
 30
0.0
 10
338.40234375
 20
-86.96923828125
 30
0.0
 10
338.40234375
 20
-96.22607421875
 30
0.0
 10
338.40234375
 20
-102.2216796875
 30
0.0
 10
339.87890625
 20
-108.37109375
 30
0.0
 10
342.83251953125
 20
-114.673828125
 30
0.0
 10
345.78515625
 20
-120.978515625
 30
0.0
 10
348.453125
 20
-124.12890625
 30
0.0
 10
350.83349609375
 20
-124.12890625
 30
0.0
 10
353.3017578125
 20
-124.12890625
 30
0.0
 10
356.6953125
 20
-117.3515625
 30
0.0
 10
361.01611328125
 20
-103.796875
 30
0.0
 10
365.33544921875
 20
-90.2421875
 30
0.0
 10
368.48779296875
 20
-75.39794921875
 30
0.0
 10
370.47119140625
 20
-59.26416015625
 30
0.0
  0
SPLINE
  5
51
330
3C
100
AcDbEntity
  8
Layer 1
370
     0
100
AcDbSpline
210
0.0
220
0.0
230
1.0
 70
    11
 71
     3
 72
    50
 73
    46
 74
     0
 42
0.0000000001
 43
0.0000000001
 40
0.0
 40
0.0
 40
0.0
 40
0.0
 40
1.0
 40
1.0
 40
1.0
 40
2.0
 40
2.0
 40
2.0
 40
3.0
 40
3.0
 40
3.0
 40
4.0
 40
4.0
 40
4.0
 40
5.0
 40
5.0
 40
5.0
 40
6.0
 40
6.0
 40
6.0
 40
7.0
 40
7.0
 40
7.0
 40
8.0
 40
8.0
 40
8.0
 40
9.0
 40
9.0
 40
9.0
 40
10.0
 40
10.0
 40
10.0
 40
11.0
 40
11.0
 40
11.0
 40
12.0
 40
12.0
 40
12.0
 40
13.0
 40
13.0
 40
13.0
 40
14.0
 40
14.0
 40
14.0
 40
15.0
 40
15.0
 40
15.0
 40
15.0
 10
514.748046875
 20
-106.607421875
 30
0.0
 10
514.748046875
 20
-106.607421875
 30
0.0
 10
490.61376953125
 20
-106.607421875
 30
0.0
 10
490.61376953125
 20
-106.607421875
 30
0.0
 10
490.61376953125
 20
-106.607421875
 30
0.0
 10
490.61376953125
 20
-150.3798828125
 30
0.0
 10
490.61376953125
 20
-150.3798828125
 30
0.0
 10
490.61376953125
 20
-150.3798828125
 30
0.0
 10
480.16650390625
 20
-150.3798828125
 30
0.0
 10
480.16650390625
 20
-150.3798828125
 30
0.0
 10
480.16650390625
 20
-150.3798828125
 30
0.0
 10
480.16650390625
 20
-113.28515625
 30
0.0
 10
480.16650390625
 20
-113.28515625
 30
0.0
 10
476.81640625
 20
-123.0283203125
 30
0.0
 10
469.564453125
 20
-132.5498046875
 30
0.0
 10
458.41259765625
 20
-141.849609375
 30
0.0
 10
458.41259765625
 20
-141.849609375
 30
0.0
 10
450.80859375
 20
-133.716796875
 30
0.0
 10
450.80859375
 20
-133.716796875
 30
0.0
 10
462.13720703125
 20
-125.2099609375
 30
0.0
 10
469.3662109375
 20
-116.1728515625
 30
0.0
 10
472.49658203125
 20
-106.607421875
 30
0.0
 10
472.49658203125
 20
-106.607421875
 30
0.0
 10
454.57763671875
 20
-106.607421875
 30
0.0
 10
454.57763671875
 20
-106.607421875
 30
0.0
 10
454.57763671875
 20
-106.607421875
 30
0.0
 10
454.57763671875
 20
-96.88720703125
 30
0.0
 10
454.57763671875
 20
-96.88720703125
 30
0.0
 10
454.57763671875
 20
-96.88720703125
 30
0.0
 10
480.16650390625
 20
-96.88720703125
 30
0.0
 10
480.16650390625
 20
-96.88720703125
 30
0.0
 10
480.16650390625
 20
-96.88720703125
 30
0.0
 10
480.16650390625
 20
-87.1015625
 30
0.0
 10
480.16650390625
 20
-87.1015625
 30
0.0
 10
480.16650390625
 20
-87.1015625
 30
0.0
 10
490.61376953125
 20
-87.1015625
 30
0.0
 10
490.61376953125
 20
-87.1015625
 30
0.0
 10
490.61376953125
 20
-87.1015625
 30
0.0
 10
490.61376953125
 20
-96.88720703125
 30
0.0
 10
490.61376953125
 20
-96.88720703125
 30
0.0
 10
490.61376953125
 20
-96.88720703125
 30
0.0
 10
514.748046875
 20
-96.88720703125
 30
0.0
 10
514.748046875
 20
-96.88720703125
 30
0.0
 10
514.748046875
 20
-96.88720703125
 30
0.0
 10
514.748046875
 20
-106.607421875
 30
0.0
 10
514.748046875
 20
-106.607421875
 30
0.0
  0
SPLINE
  5
52
330
3C
100
AcDbEntity
  8
Layer 1
370
     0
100
AcDbSpline
210
0.0
220
0.0
230
1.0
 70
    11
 71
     3
 72
   155
 73
   151
 74
     0
 42
0.0000000001
 43
0.0000000001
 40
0.0
 40
0.0
 40
0.0
 40
0.0
 40
1.0
 40
1.0
 40
1.0
 40
2.0
 40
2.0
 40
2.0
 40
3.0
 40
3.0
 40
3.0
 40
4.0
 40
4.0
 40
4.0
 40
5.0
 40
5.0
 40
5.0
 40
6.0
 40
6.0
 40
6.0
 40
7.0
 40
7.0
 40
7.0
 40
8.0
 40
8.0
 40
8.0
 40
9.0
 40
9.0
 40
9.0
 40
10.0
 40
10.0
 40
10.0
 40
11.0
 40
11.0
 40
11.0
 40
12.0
 40
12.0
 40
12.0
 40
13.0
 40
13.0
 40
13.0
 40
14.0
 40
14.0
 40
14.0
 40
15.0
 40
15.0
 40
15.0
 40
16.0
 40
16.0
 40
16.0
 40
17.0
 40
17.0
 40
17.0
 40
18.0
 40
18.0
 40
18.0
 40
19.0
 40
19.0
 40
19.0
 40
20.0
 40
20.0
 40
20.0
 40
21.0
 40
21.0
 40
21.0
 40
22.0
 40
22.0
 40
22.0
 40
23.0
 40
23.0
 40
23.0
 40
24.0
 40
24.0
 40
24.0
 40
25.0
 40
25.0
 40
25.0
 40
26.0
 40
26.0
 40
26.0
 40
27.0
 40
27.0
 40
27.0
 40
28.0
 40
28.0
 40
28.0
 40
29.0
 40
29.0
 40
29.0
 40
30.0
 40
30.0
 40
30.0
 40
31.0
 40
31.0
 40
31.0
 40
32.0
 40
32.0
 40
32.0
 40
33.0
 40
33.0
 40
33.0
 40
34.0
 40
34.0
 40
34.0
 40
35.0
 40
35.0
 40
35.0
 40
36.0
 40
36.0
 40
36.0
 40
37.0
 40
37.0
 40
37.0
 40
38.0
 40
38.0
 40
38.0
 40
39.0
 40
39.0
 40
39.0
 40
40.0
 40
40.0
 40
40.0
 40
41.0
 40
41.0
 40
41.0
 40
42.0
 40
42.0
 40
42.0
 40
43.0
 40
43.0
 40
43.0
 40
44.0
 40
44.0
 40
44.0
 40
45.0
 40
45.0
 40
45.0
 40
46.0
 40
46.0
 40
46.0
 40
47.0
 40
47.0
 40
47.0
 40
48.0
 40
48.0
 40
48.0
 40
49.0
 40
49.0
 40
49.0
 40
50.0
 40
50.0
 40
50.0
 40
50.0
 10
574.5888671875
 20
-143.0400390625
 30
0.0
 10
574.5888671875
 20
-143.0400390625
 30
0.0
 10
528.83203125
 20
-143.0400390625
 30
0.0
 10
528.83203125
 20
-143.0400390625
 30
0.0
 10
528.83203125
 20
-143.0400390625
 30
0.0
 10
528.83203125
 20
-150.908203125
 30
0.0
 10
528.83203125
 20
-150.908203125
 30
0.0
 10
528.83203125
 20
-150.908203125
 30
0.0
 10
518.251953125
 20
-150.908203125
 30
0.0
 10
518.251953125
 20
-150.908203125
 30
0.0
 10
518.251953125
 20
-150.908203125
 30
0.0
 10
518.251953125
 20
-71.29833984375
 30
0.0
 10
518.251953125
 20
-71.29833984375
 30
0.0
 10
518.251953125
 20
-71.29833984375
 30
0.0
 10
515.14453125
 20
-75.9931640625
 30
0.0
 10
515.14453125
 20
-75.9931640625
 30
0.0
 10
515.14453125
 20
-75.9931640625
 30
0.0
 10
517.12890625
 20
-77.38134765625
 30
0.0
 10
517.12890625
 20
-77.38134765625
 30
0.0
 10
515.14453125
 20
-85.40478515625
 30
0.0
 10
511.7734375
 20
-89.41552734375
 30
0.0
 10
507.01171875
 20
-89.41552734375
 30
0.0
 10
507.01171875
 20
-89.41552734375
 30
0.0
 10
499.67236328125
 20
-89.41552734375
 30
0.0
 10
499.67236328125
 20
-89.41552734375
 30
0.0
 10
497.33544921875
 20
-89.41552734375
 30
0.0
 10
495.51708984375
 20
-88.63330078125
 30
0.0
 10
494.21728515625
 20
-87.068359375
 30
0.0
 10
492.9169921875
 20
-85.50390625
 30
0.0
 10
492.26708984375
 20
-83.70751953125
 30
0.0
 10
492.26708984375
 20
-81.67919921875
 30
0.0
 10
492.26708984375
 20
-81.67919921875
 30
0.0
 10
492.26708984375
 20
-55.5615234375
 30
0.0
 10
492.26708984375
 20
-55.5615234375
 30
0.0
 10
492.26708984375
 20
-55.5615234375
 30
0.0
 10
482.3486328125
 20
-55.5615234375
 30
0.0
 10
482.3486328125
 20
-55.5615234375
 30
0.0
 10
482.3486328125
 20
-71.078125
 30
0.0
 10
475.58154296875
 20
-83.685546875
 30
0.0
 10
462.04931640625
 20
-93.3828125
 30
0.0
 10
462.04931640625
 20
-93.3828125
 30
0.0
 10
454.57763671875
 20
-85.77880859375
 30
0.0
 10
454.57763671875
 20
-85.77880859375
 30
0.0
 10
460.1318359375
 20
-82.4296875
 30
0.0
 10
464.45166015625
 20
-78.05419921875
 30
0.0
 10
467.53759765625
 20
-72.65380859375
 30
0.0
 10
470.62255859375
 20
-67.25439453125
 30
0.0
 10
472.166015625
 20
-61.556640625
 30
0.0
 10
472.166015625
 20
-55.5615234375
 30
0.0
 10
472.166015625
 20
-55.5615234375
 30
0.0
 10
458.41259765625
 20
-55.5615234375
 30
0.0
 10
458.41259765625
 20
-55.5615234375
 30
0.0
 10
458.41259765625
 20
-55.5615234375
 30
0.0
 10
458.41259765625
 20
-46.23828125
 30
0.0
 10
458.41259765625
 20
-46.23828125
 30
0.0
 10
458.41259765625
 20
-46.23828125
 30
0.0
 10
472.62890625
 20
-46.23828125
 30
0.0
 10
472.62890625
 20
-46.23828125
 30
0.0
 10
472.62890625
 20
-46.23828125
 30
0.0
 10
472.62890625
 20
-30.50146484375
 30
0.0
 10
472.62890625
 20
-30.50146484375
 30
0.0
 10
472.62890625
 20
-30.50146484375
 30
0.0
 10
482.87744140625
 20
-30.50146484375
 30
0.0
 10
482.87744140625
 20
-30.50146484375
 30
0.0
 10
482.87744140625
 20
-30.50146484375
 30
0.0
 10
482.87744140625
 20
-46.23828125
 30
0.0
 10
482.87744140625
 20
-46.23828125
 30
0.0
 10
482.87744140625
 20
-46.23828125
 30
0.0
 10
502.119140625
 20
-46.23828125
 30
0.0
 10
502.119140625
 20
-46.23828125
 30
0.0
 10
502.119140625
 20
-46.23828125
 30
0.0
 10
502.119140625
 20
-76.32373046875
 30
0.0
 10
502.119140625
 20
-76.32373046875
 30
0.0
 10
502.119140625
 20
-78.39599609375
 30
0.0
 10
502.7578125
 20
-79.43115234375
 30
0.0
 10
504.037109375
 20
-79.43115234375
 30
0.0
 10
504.037109375
 20
-79.43115234375
 30
0.0
 10
505.755859375
 20
-79.43115234375
 30
0.0
 10
505.755859375
 20
-79.43115234375
 30
0.0
 10
506.107421875
 20
-79.43115234375
 30
0.0
 10
506.4501953125
 20
-79.23291015625
 30
0.0
 10
506.78125
 20
-78.83642578125
 30
0.0
 10
507.111328125
 20
-78.439453125
 30
0.0
 10
507.541015625
 20
-76.87548828125
 30
0.0
 10
508.0703125
 20
-74.1416015625
 30
0.0
 10
508.0703125
 20
-74.1416015625
 30
0.0
 10
504.962890625
 20
-71.56298828125
 30
0.0
 10
504.962890625
 20
-71.56298828125
 30
0.0
 10
516.1142578125
 20
-59.396484375
 30
0.0
 10
523.38671875
 20
-45.4013671875
 30
0.0
 10
526.7822265625
 20
-29.57568359375
 30
0.0
 10
526.7822265625
 20
-29.57568359375
 30
0.0
 10
536.634765625
 20
-34.07177734375
 30
0.0
 10
536.634765625
 20
-34.07177734375
 30
0.0
 10
534.650390625
 20
-41.9189453125
 30
0.0
 10
532.09375
 20
-48.72900390625
 30
0.0
 10
528.96484375
 20
-54.50341796875
 30
0.0
 10
528.96484375
 20
-54.50341796875
 30
0.0
 10
543.5771484375
 20
-54.50341796875
 30
0.0
 10
543.5771484375
 20
-54.50341796875
 30
0.0
 10
546.486328125
 20
-48.59716796875
 30
0.0
 10
548.9990234375
 20
-40.5517578125
 30
0.0
 10
551.115234375
 20
-30.369140625
 30
0.0
 10
551.115234375
 20
-30.369140625
 30
0.0
 10
561.5615234375
 20
-34.2041015625
 30
0.0
 10
561.5615234375
 20
-34.2041015625
 30
0.0
 10
559.6669921875
 20
-42.05078125
 30
0.0
 10
557.3740234375
 20
-48.81689453125
 30
0.0
 10
554.6865234375
 20
-54.50341796875
 30
0.0
 10
554.6865234375
 20
-54.50341796875
 30
0.0
 10
573.0673828125
 20
-54.50341796875
 30
0.0
 10
573.0673828125
 20
-54.50341796875
 30
0.0
 10
573.0673828125
 20
-54.50341796875
 30
0.0
 10
573.0673828125
 20
-64.22314453125
 30
0.0
 10
573.0673828125
 20
-64.22314453125
 30
0.0
 10
573.0673828125
 20
-64.22314453125
 30
0.0
 10
553.9580078125
 20
-64.22314453125
 30
0.0
 10
553.9580078125
 20
-64.22314453125
 30
0.0
 10
553.9580078125
 20
-64.22314453125
 30
0.0
 10
553.9580078125
 20
-80.09228515625
 30
0.0
 10
553.9580078125
 20
-80.09228515625
 30
0.0
 10
553.9580078125
 20
-80.09228515625
 30
0.0
 10
569.0341796875
 20
-80.09228515625
 30
0.0
 10
569.0341796875
 20
-80.09228515625
 30
0.0
 10
569.0341796875
 20
-80.09228515625
 30
0.0
 10
569.0341796875
 20
-89.8125
 30
0.0
 10
569.0341796875
 20
-89.8125
 30
0.0
 10
569.0341796875
 20
-89.8125
 30
0.0
 10
553.9580078125
 20
-89.8125
 30
0.0
 10
553.9580078125
 20
-89.8125
 30
0.0
 10
553.9580078125
 20
-89.8125
 30
0.0
 10
553.9580078125
 20
-106.2109375
 30
0.0
 10
553.9580078125
 20
-106.2109375
 30
0.0
 10
553.9580078125
 20
-106.2109375
 30
0.0
 10
569.0341796875
 20
-106.2109375
 30
0.0
 10
569.0341796875
 20
-106.2109375
 30
0.0
 10
569.0341796875
 20
-106.2109375
 30
0.0
 10
569.0341796875
 20
-115.99609375
 30
0.0
 10
569.0341796875
 20
-115.99609375
 30
0.0
 10
569.0341796875
 20
-115.99609375
 30
0.0
 10
553.9580078125
 20
-115.99609375
 30
0.0
 10
553.9580078125
 20
-115.99609375
 30
0.0
 10
553.9580078125
 20
-115.99609375
 30
0.0
 10
553.9580078125
 20
-133.3203125
 30
0.0
 10
553.9580078125
 20
-133.3203125
 30
0.0
 10
553.9580078125
 20
-133.3203125
 30
0.0
 10
574.5888671875
 20
-133.3203125
 30
0.0
 10
574.5888671875
 20
-133.3203125
 30
0.0
 10
574.5888671875
 20
-133.3203125
 30
0.0
 10
574.5888671875
 20
-143.0400390625
 30
0.0
 10
574.5888671875
 20
-143.0400390625
 30
0.0
  0
SPLINE
  5
53
330
3C
100
AcDbEntity
  8
Layer 1
370
     0
100
AcDbSpline
210
0.0
220
0.0
230
1.0
 70
    11
 71
     3
 72
    17
 73
    13
 74
     0
 42
0.0000000001
 43
0.0000000001
 40
0.0
 40
0.0
 40
0.0
 40
0.0
 40
1.0
 40
1.0
 40
1.0
 40
2.0
 40
2.0
 40
2.0
 40
3.0
 40
3.0
 40
3.0
 40
4.0
 40
4.0
 40
4.0
 40
4.0
 10
517.12890625
 20
-131.6669921875
 30
0.0
 10
517.12890625
 20
-131.6669921875
 30
0.0
 10
508.466796875
 20
-138.345703125
 30
0.0
 10
508.466796875
 20
-138.345703125
 30
0.0
 10
505.072265625
 20
-129.529296875
 30
0.0
 10
499.76025390625
 20
-121.5732421875
 30
0.0
 10
492.53125
 20
-114.4755859375
 30
0.0
 10
492.53125
 20
-114.4755859375
 30
0.0
 10
500.20166015625
 20
-108.7890625
 30
0.0
 10
500.20166015625
 20
-108.7890625
 30
0.0
 10
507.4306640625
 20
-115.2255859375
 30
0.0
 10
513.072265625
 20
-122.8515625
 30
0.0
 10
517.12890625
 20
-131.6669921875
 30
0.0
  0
POLYLINE
  5
54
330
3C
100
AcDbEntity
  8
Layer 1
370
     0
100
AcDb2dPolyline
 66
     1
 10
0.0
 20
0.0
 30
0.0
  0
VERTEX
  5
55
330
54
100
AcDbEntity
  8
Layer 1
370
     0
100
AcDbVertex
100
AcDb2dVertex
 10
543.708984375
 20
-80.09228515625
 30
0.0
  0
VERTEX
  5
56
330
54
100
AcDbEntity
  8
Layer 1
370
     0
100
AcDbVertex
100
AcDb2dVertex
 10
543.708984375
 20
-64.22314453125
 30
0.0
  0
VERTEX
  5
57
330
54
100
AcDbEntity
  8
Layer 1
370
     0
100
AcDbVertex
100
AcDb2dVertex
 10
528.83203125
 20
-64.22314453125
 30
0.0
  0
VERTEX
  5
58
330
54
100
AcDbEntity
  8
Layer 1
370
     0
100
AcDbVertex
100
AcDb2dVertex
 10
528.83203125
 20
-80.09228515625
 30
0.0
  0
VERTEX
  5
59
330
54
100
AcDbEntity
  8
Layer 1
370
     0
100
AcDbVertex
100
AcDb2dVertex
 10
543.708984375
 20
-80.09228515625
 30
0.0
  0
SEQEND
  5
5A
330
54
100
AcDbEntity
  8
Layer 1
370
     0
  0
POLYLINE
  5
5B
330
3C
100
AcDbEntity
  8
Layer 1
370
     0
100
AcDb2dPolyline
 66
     1
 10
0.0
 20
0.0
 30
0.0
  0
VERTEX
  5
5C
330
5B
100
AcDbEntity
  8
Layer 1
370
     0
100
AcDbVertex
100
AcDb2dVertex
 10
543.708984375
 20
-106.2109375
 30
0.0
  0
VERTEX
  5
5D
330
5B
100
AcDbEntity
  8
Layer 1
370
     0
100
AcDbVertex
100
AcDb2dVertex
 10
543.708984375
 20
-89.8125
 30
0.0
  0
VERTEX
  5
5E
330
5B
100
AcDbEntity
  8
Layer 1
370
     0
100
AcDbVertex
100
AcDb2dVertex
 10
528.83203125
 20
-89.8125
 30
0.0
  0
VERTEX
  5
5F
330
5B
100
AcDbEntity
  8
Layer 1
370
     0
100
AcDbVertex
100
AcDb2dVertex
 10
528.83203125
 20
-106.2109375
 30
0.0
  0
VERTEX
  5
60
330
5B
100
AcDbEntity
  8
Layer 1
370
     0
100
AcDbVertex
100
AcDb2dVertex
 10
543.708984375
 20
-106.2109375
 30
0.0
  0
SEQEND
  5
61
330
5B
100
AcDbEntity
  8
Layer 1
370
     0
  0
POLYLINE
  5
62
330
3C
100
AcDbEntity
  8
Layer 1
370
     0
100
AcDb2dPolyline
 66
     1
 10
0.0
 20
0.0
 30
0.0
  0
VERTEX
  5
63
330
62
100
AcDbEntity
  8
Layer 1
370
     0
100
AcDbVertex
100
AcDb2dVertex
 10
543.708984375
 20
-133.3203125
 30
0.0
  0
VERTEX
  5
64
330
62
100
AcDbEntity
  8
Layer 1
370
     0
100
AcDbVertex
100
AcDb2dVertex
 10
543.708984375
 20
-115.99609375
 30
0.0
  0
VERTEX
  5
65
330
62
100
AcDbEntity
  8
Layer 1
370
     0
100
AcDbVertex
100
AcDb2dVertex
 10
528.83203125
 20
-115.99609375
 30
0.0
  0
VERTEX
  5
66
330
62
100
AcDbEntity
  8
Layer 1
370
     0
100
AcDbVertex
100
AcDb2dVertex
 10
528.83203125
 20
-133.3203125
 30
0.0
  0
VERTEX
  5
67
330
62
100
AcDbEntity
  8
Layer 1
370
     0
100
AcDbVertex
100
AcDb2dVertex
 10
543.708984375
 20
-133.3203125
 30
0.0
  0
SEQEND
  5
68
330
62
100
AcDbEntity
  8
Layer 1
370
     0
  0
POLYLINE
  5
69
330
3C
100
AcDbEntity
  8
Layer 1
370
     0
100
AcDb2dPolyline
 66
     1
 10
0.0
 20
0.0
 30
0.0
  0
VERTEX
  5
6A
330
69
100
AcDbEntity
  8
Layer 1
370
     0
100
AcDbVertex
100
AcDb2dVertex
 10
707.955078125
 20
-50.734375
 30
0.0
  0
VERTEX
  5
6B
330
69
100
AcDbEntity
  8
Layer 1
370
     0
100
AcDbVertex
100
AcDb2dVertex
 10
679.1259765625
 20
-50.734375
 30
0.0
  0
VERTEX
  5
6C
330
69
100
AcDbEntity
  8
Layer 1
370
     0
100
AcDbVertex
100
AcDb2dVertex
 10
679.1259765625
 20
-60.0576171875
 30
0.0
  0
VERTEX
  5
6D
330
69
100
AcDbEntity
  8
Layer 1
370
     0
100
AcDbVertex
100
AcDb2dVertex
 10
701.078125
 20
-60.0576171875
 30
0.0
  0
VERTEX
  5
6E
330
69
100
AcDbEntity
  8
Layer 1
370
     0
100
AcDbVertex
100
AcDb2dVertex
 10
701.078125
 20
-150.64453125
 30
0.0
  0
VERTEX
  5
6F
330
69
100
AcDbEntity
  8
Layer 1
370
     0
100
AcDbVertex
100
AcDb2dVertex
 10
690.763671875
 20
-150.64453125
 30
0.0
  0
VERTEX
  5
70
330
69
100
AcDbEntity
  8
Layer 1
370
     0
100
AcDbVertex
100
AcDb2dVertex
 10
690.763671875
 20
-142.775390625
 30
0.0
  0
VERTEX
  5
71
330
69
100
AcDbEntity
  8
Layer 1
370
     0
100
AcDbVertex
100
AcDb2dVertex
 10
608.57421875
 20
-142.775390625
 30
0.0
  0
VERTEX
  5
72
330
69
100
AcDbEntity
  8
Layer 1
370
     0
100
AcDbVertex
100
AcDb2dVertex
 10
608.57421875
 20
-150.64453125
 30
0.0
  0
VERTEX
  5
73
330
69
100
AcDbEntity
  8
Layer 1
370
     0
100
AcDbVertex
100
AcDb2dVertex
 10
598.259765625
 20
-150.64453125
 30
0.0
  0
VERTEX
  5
74
330
69
100
AcDbEntity
  8
Layer 1
370
     0
100
AcDbVertex
100
AcDb2dVertex
 10
598.259765625
 20
-60.0576171875
 30
0.0
  0
VERTEX
  5
75
330
69
100
AcDbEntity
  8
Layer 1
370
     0
100
AcDbVertex
100
AcDb2dVertex
 10
619.55078125
 20
-60.0576171875
 30
0.0
  0
VERTEX
  5
76
330
69
100
AcDbEntity
  8
Layer 1
370
     0
100
AcDbVertex
100
AcDb2dVertex
 10
619.55078125
 20
-50.734375
 30
0.0
  0
VERTEX
  5
77
330
69
100
AcDbEntity
  8
Layer 1
370
     0
100
AcDbVertex
100
AcDb2dVertex
 10
590.390625
 20
-50.734375
 30
0.0
  0
VERTEX
  5
78
330
69
100
AcDbEntity
  8
Layer 1
370
     0
100
AcDbVertex
100
AcDb2dVertex
 10
590.390625
 20
-40.81640625
 30
0.0
  0
VERTEX
  5
79
330
69
100
AcDbEntity
  8
Layer 1
370
     0
100
AcDbVertex
100
AcDb2dVertex
 10
619.55078125
 20
-40.81640625
 30
0.0
  0
VERTEX
  5
7A
330
69
100
AcDbEntity
  8
Layer 1
370
     0
100
AcDbVertex
100
AcDb2dVertex
 10
619.55078125
 20
-28.91455078125
 30
0.0
  0
VERTEX
  5
7B
330
69
100
AcDbEntity
  8
Layer 1
370
     0
100
AcDbVertex
100
AcDb2dVertex
 10
629.798828125
 20
-28.91455078125
 30
0.0
  0
VERTEX
  5
7C
330
69
100
AcDbEntity
  8
Layer 1
370
     0
100
AcDbVertex
100
AcDb2dVertex
 10
629.798828125
 20
-40.81640625
 30
0.0
  0
VERTEX
  5
7D
330
69
100
AcDbEntity
  8
Layer 1
370
     0
100
AcDbVertex
100
AcDb2dVertex
 10
668.810546875
 20
-40.81640625
 30
0.0
  0
VERTEX
  5
7E
330
69
100
AcDbEntity
  8
Layer 1
370
     0
100
AcDbVertex
100
AcDb2dVertex
 10
668.810546875
 20
-28.91455078125
 30
0.0
  0
VERTEX
  5
7F
330
69
100
AcDbEntity
  8
Layer 1
370
     0
100
AcDbVertex
100
AcDb2dVertex
 10
679.1259765625
 20
-28.91455078125
 30
0.0
  0
VERTEX
  5
80
330
69
100
AcDbEntity
  8
Layer 1
370
     0
100
AcDbVertex
100
AcDb2dVertex
 10
679.1259765625
 20
-40.81640625
 30
0.0
  0
VERTEX
  5
81
330
69
100
AcDbEntity
  8
Layer 1
370
     0
100
AcDbVertex
100
AcDb2dVertex
 10
707.955078125
 20
-40.81640625
 30
0.0
  0
VERTEX
  5
82
330
69
100
AcDbEntity
  8
Layer 1
370
     0
100
AcDbVertex
100
AcDb2dVertex
 10
707.955078125
 20
-50.734375
 30
0.0
  0
SEQEND
  5
83
330
69
100
AcDbEntity
  8
Layer 1
370
     0
  0
SPLINE
  5
84
330
3C
100
AcDbEntity
  8
Layer 1
370
     0
100
AcDbSpline
210
0.0
220
0.0
230
1.0
 70
    11
 71
     3
 72
    65
 73
    61
 74
     0
 42
0.0000000001
 43
0.0000000001
 40
0.0
 40
0.0
 40
0.0
 40
0.0
 40
1.0
 40
1.0
 40
1.0
 40
2.0
 40
2.0
 40
2.0
 40
3.0
 40
3.0
 40
3.0
 40
4.0
 40
4.0
 40
4.0
 40
5.0
 40
5.0
 40
5.0
 40
6.0
 40
6.0
 40
6.0
 40
7.0
 40
7.0
 40
7.0
 40
8.0
 40
8.0
 40
8.0
 40
9.0
 40
9.0
 40
9.0
 40
10.0
 40
10.0
 40
10.0
 40
11.0
 40
11.0
 40
11.0
 40
12.0
 40
12.0
 40
12.0
 40
13.0
 40
13.0
 40
13.0
 40
14.0
 40
14.0
 40
14.0
 40
15.0
 40
15.0
 40
15.0
 40
16.0
 40
16.0
 40
16.0
 40
17.0
 40
17.0
 40
17.0
 40
18.0
 40
18.0
 40
18.0
 40
19.0
 40
19.0
 40
19.0
 40
20.0
 40
20.0
 40
20.0
 40
20.0
 10
690.763671875
 20
-132.923828125
 30
0.0
 10
690.763671875
 20
-132.923828125
 30
0.0
 10
690.763671875
 20
-69.90966796875
 30
0.0
 10
690.763671875
 20
-69.90966796875
 30
0.0
 10
690.763671875
 20
-69.90966796875
 30
0.0
 10
676.0185546875
 20
-69.90966796875
 30
0.0
 10
676.0185546875
 20
-69.90966796875
 30
0.0
 10
676.0185546875
 20
-69.90966796875
 30
0.0
 10
682.6298828125
 20
-76.19140625
 30
0.0
 10
682.6298828125
 20
-76.19140625
 30
0.0
 10
677.60546875
 20
-79.1005859375
 30
0.0
 10
668.6123046875
 20
-81.48095703125
 30
0.0
 10
655.65234375
 20
-83.33251953125
 30
0.0
 10
655.65234375
 20
-83.33251953125
 30
0.0
 10
655.65234375
 20
-91.994140625
 30
0.0
 10
655.65234375
 20
-91.994140625
 30
0.0
 10
655.65234375
 20
-91.994140625
 30
0.0
 10
688.44921875
 20
-91.994140625
 30
0.0
 10
688.44921875
 20
-91.994140625
 30
0.0
 10
688.44921875
 20
-91.994140625
 30
0.0
 10
688.44921875
 20
-101.3173828125
 30
0.0
 10
688.44921875
 20
-101.3173828125
 30
0.0
 10
688.44921875
 20
-101.3173828125
 30
0.0
 10
655.65234375
 20
-101.3173828125
 30
0.0
 10
655.65234375
 20
-101.3173828125
 30
0.0
 10
655.65234375
 20
-101.3173828125
 30
0.0
 10
655.65234375
 20
-105.4169921875
 30
0.0
 10
655.65234375
 20
-105.4169921875
 30
0.0
 10
655.65234375
 20
-105.4169921875
 30
0.0
 10
658.5625
 20
-101.7802734375
 30
0.0
 10
658.5625
 20
-101.7802734375
 30
0.0
 10
672.138671875
 20
-106.056640625
 30
0.0
 10
682.3662109375
 20
-112.9990234375
 30
0.0
 10
689.2421875
 20
-122.6083984375
 30
0.0
 10
689.2421875
 20
-122.6083984375
 30
0.0
 10
682.2333984375
 20
-130.080078125
 30
0.0
 10
682.2333984375
 20
-130.080078125
 30
0.0
 10
676.6796875
 20
-121.7060546875
 30
0.0
 10
667.8193359375
 20
-114.9609375
 30
0.0
 10
655.65234375
 20
-109.84765625
 30
0.0
 10
655.65234375
 20
-109.84765625
 30
0.0
 10
655.65234375
 20
-131.53515625
 30
0.0
 10
655.65234375
 20
-131.53515625
 30
0.0
 10
655.65234375
 20
-131.53515625
 30
0.0
 10
645.9326171875
 20
-131.6669921875
 30
0.0
 10
645.9326171875
 20
-131.6669921875
 30
0.0
 10
645.9326171875
 20
-131.6669921875
 30
0.0
 10
645.9326171875
 20
-105.814453125
 30
0.0
 10
645.9326171875
 20
-105.814453125
 30
0.0
 10
639.7177734375
 20
-116.6142578125
 30
0.0
 10
629.115234375
 20
-124.658203125
 30
0.0
 10
614.12890625
 20
-129.9482421875
 30
0.0
 10
614.12890625
 20
-129.9482421875
 30
0.0
 10
608.57421875
 20
-123.6669921875
 30
0.0
 10
608.57421875
 20
-123.6669921875
 30
0.0
 10
608.57421875
 20
-123.6669921875
 30
0.0
 10
608.57421875
 20
-132.923828125
 30
0.0
 10
608.57421875
 20
-132.923828125
 30
0.0
 10
608.57421875
 20
-132.923828125
 30
0.0
 10
690.763671875
 20
-132.923828125
 30
0.0
 10
690.763671875
 20
-132.923828125
 30
0.0
  0
SPLINE
  5
85
330
3C
100
AcDbEntity
  8
Layer 1
370
     0
100
AcDbSpline
210
0.0
220
0.0
230
1.0
 70
    11
 71
     3
 72
    38
 73
    34
 74
     0
 42
0.0000000001
 43
0.0000000001
 40
0.0
 40
0.0
 40
0.0
 40
0.0
 40
1.0
 40
1.0
 40
1.0
 40
2.0
 40
2.0
 40
2.0
 40
3.0
 40
3.0
 40
3.0
 40
4.0
 40
4.0
 40
4.0
 40
5.0
 40
5.0
 40
5.0
 40
6.0
 40
6.0
 40
6.0
 40
7.0
 40
7.0
 40
7.0
 40
8.0
 40
8.0
 40
8.0
 40
9.0
 40
9.0
 40
9.0
 40
10.0
 40
10.0
 40
10.0
 40
11.0
 40
11.0
 40
11.0
 40
11.0
 10
673.96875
 20
-69.90966796875
 30
0.0
 10
673.96875
 20
-69.90966796875
 30
0.0
 10
608.57421875
 20
-69.90966796875
 30
0.0
 10
608.57421875
 20
-69.90966796875
 30
0.0
 10
608.57421875
 20
-69.90966796875
 30
0.0
 10
608.57421875
 20
-121.6826171875
 30
0.0
 10
608.57421875
 20
-121.6826171875
 30
0.0
 10
620.916015625
 20
-117.4951171875
 30
0.0
 10
630.2177734375
 20
-110.70703125
 30
0.0
 10
636.4775390625
 20
-101.3173828125
 30
0.0
 10
636.4775390625
 20
-101.3173828125
 30
0.0
 10
610.42578125
 20
-101.3173828125
 30
0.0
 10
610.42578125
 20
-101.3173828125
 30
0.0
 10
610.42578125
 20
-101.3173828125
 30
0.0
 10
610.42578125
 20
-91.994140625
 30
0.0
 10
610.42578125
 20
-91.994140625
 30
0.0
 10
610.42578125
 20
-91.994140625
 30
0.0
 10
645.9326171875
 20
-91.994140625
 30
0.0
 10
645.9326171875
 20
-91.994140625
 30
0.0
 10
645.9326171875
 20
-91.994140625
 30
0.0
 10
645.9326171875
 20
-84.25830078125
 30
0.0
 10
645.9326171875
 20
-84.25830078125
 30
0.0
 10
643.15625
 20
-84.65478515625
 30
0.0
 10
634.669921875
 20
-84.85302734375
 30
0.0
 10
620.4765625
 20
-84.85302734375
 30
0.0
 10
620.4765625
 20
-84.85302734375
 30
0.0
 10
614.12890625
 20
-74.67041015625
 30
0.0
 10
614.12890625
 20
-74.67041015625
 30
0.0
 10
620.6962890625
 20
-75.11181640625
 30
0.0
 10
626.80078125
 20
-75.33154296875
 30
0.0
 10
632.4443359375
 20
-75.33154296875
 30
0.0
 10
648.2685546875
 20
-75.33154296875
 30
0.0
 10
662.1103515625
 20
-73.52490234375
 30
0.0
 10
673.96875
 20
-69.90966796875
 30
0.0
  0
POLYLINE
  5
86
330
3C
100
AcDbEntity
  8
Layer 1
370
     0
100
AcDb2dPolyline
 66
     1
 10
0.0
 20
0.0
 30
0.0
  0
VERTEX
  5
87
330
86
100
AcDbEntity
  8
Layer 1
370
     0
100
AcDbVertex
100
AcDb2dVertex
 10
668.810546875
 20
-60.0576171875
 30
0.0
  0
VERTEX
  5
88
330
86
100
AcDbEntity
  8
Layer 1
370
     0
100
AcDbVertex
100
AcDb2dVertex
 10
668.810546875
 20
-50.734375
 30
0.0
  0
VERTEX
  5
89
330
86
100
AcDbEntity
  8
Layer 1
370
     0
100
AcDbVertex
100
AcDb2dVertex
 10
629.798828125
 20
-50.734375
 30
0.0
  0
VERTEX
  5
8A
330
86
100
AcDbEntity
  8
Layer 1
370
     0
100
AcDbVertex
100
AcDb2dVertex
 10
629.798828125
 20
-60.0576171875
 30
0.0
  0
VERTEX
  5
8B
330
86
100
AcDbEntity
  8
Layer 1
370
     0
100
AcDbVertex
100
AcDb2dVertex
 10
668.810546875
 20
-60.0576171875
 30
0.0
  0
SEQEND
  5
8C
330
86
100
AcDbEntity
  8
Layer 1
370
     0
  0
ENDBLK
  5
3F
330
3C
100
AcDbEntity
  8
0
100
AcDbBlockEnd
  0
ENDSEC
  0
SECTION
  2
ENTITIES
  0
INSERT
  5
3D
330
1F
100
AcDbEntity
  8
Layer 1
100
AcDbBlockReference
  2
block 2
 10
0.0
 20
0.0
 30
0.0
  0
ENDSEC
  0
SECTION
  2
OBJECTS
  0
DICTIONARY
  5
C
330
0
100
AcDbDictionary
281
     1
  3
ACAD_GROUP
350
D
  3
ACAD_LAYOUT
350
1A
  3
ACAD_MLINESTYLE
350
17
  3
ACAD_PLOTSETTINGS
350
19
  3
ACAD_PLOTSTYLENAME
350
E
  3
ACAD_TABLESTYLE
350
8D
  3
ACAD_VISUALSTYLE
350
2A
  0
DICTIONARY
  5
D
102
{ACAD_REACTORS
330
C
102
}
330
C
100
AcDbDictionary
281
     1
  0
DICTIONARY
  5
1A
102
{ACAD_REACTORS
330
C
102
}
330
C
100
AcDbDictionary
281
     1
  3
Layout1
350
1E
  3
Layout2
350
26
  3
Model
350
22
  0
DICTIONARY
  5
17
102
{ACAD_REACTORS
330
C
102
}
330
C
100
AcDbDictionary
281
     1
  3
Standard
350
18
  0
DICTIONARY
  5
19
102
{ACAD_REACTORS
330
C
102
}
330
C
100
AcDbDictionary
281
     1
  0
ACDBDICTIONARYWDFLT
  5
E
102
{ACAD_REACTORS
330
C
102
}
330
C
100
AcDbDictionary
281
     1
  3
Normal
350
F
100
AcDbDictionaryWithDefault
340
F
  0
DICTIONARY
  5
8D
102
{ACAD_REACTORS
330
C
102
}
330
C
100
AcDbDictionary
281
     1
  0
DICTIONARY
  5
2A
102
{ACAD_REACTORS
330
C
102
}
330
C
100
AcDbDictionary
281
     1
  3
2dWireframe
350
2F
  3
3D Hidden
350
31
  3
3dWireframe
350
30
  3
Basic
350
32
  3
Brighten
350
36
  3
ColorChange
350
3A
  3
Conceptual
350
34
  3
Dim
350
35
  3
Facepattern
350
39
  3
Flat
350
2B
  3
FlatWithEdges
350
2C
  3
Gouraud
350
2D
  3
GouraudWithEdges
350
2E
  3
Linepattern
350
38
  3
Realistic
350
33
  3
Thicken
350
37
  0
LAYOUT
  5
1E
102
{ACAD_REACTORS
330
1A
102
}
330
1A
100
AcDbPlotSettings
  1

  2
none_device
  4

  6

 40
0.0
 41
0.0
 42
0.0
 43
0.0
 44
0.0
 45
0.0
 46
0.0
 47
0.0
 48
0.0
 49
0.0
140
0.0
141
0.0
142
1.0
143
1.0
 70
   688
 72
     0
 73
     0
 74
     5
  7

 75
    16
 76
     0
 77
     2
 78
   300
147
1.0
148
0.0
149
0.0
100
AcDbLayout
  1
Layout1
 70
     1
 71
     1
 10
0.0
 20
0.0
 11
12.0
 21
9.0
 12
0.0
 22
0.0
 32
0.0
 14
1.000000000000000E+20
 24
1.000000000000000E+20
 34
1.000000000000000E+20
 15
-1.000000000000000E+20
 25
-1.000000000000000E+20
 35
-1.000000000000000E+20
146
0.0
 13
0.0
 23
0.0
 33
0.0
 16
1.0
 26
0.0
 36
0.0
 17
0.0
 27
1.0
 37
0.0
 76
     0
330
1B
  0
LAYOUT
  5
26
102
{ACAD_REACTORS
330
1A
102
}
330
1A
100
AcDbPlotSettings
  1

  2
none_device
  4

  6

 40
0.0
 41
0.0
 42
0.0
 43
0.0
 44
0.0
 45
0.0
 46
0.0
 47
0.0
 48
0.0
 49
0.0
140
0.0
141
0.0
142
1.0
143
1.0
 70
   688
 72
     0
 73
     0
 74
     5
  7

 75
    16
 76
     0
 77
     2
 78
   300
147
1.0
148
0.0
149
0.0
100
AcDbLayout
  1
Layout2
 70
     1
 71
     2
 10
0.0
 20
0.0
 11
0.0
 21
0.0
 12
0.0
 22
0.0
 32
0.0
 14
0.0
 24
0.0
 34
0.0
 15
0.0
 25
0.0
 35
0.0
146
0.0
 13
0.0
 23
0.0
 33
0.0
 16
1.0
 26
0.0
 36
0.0
 17
0.0
 27
1.0
 37
0.0
 76
     0
330
23
  0
LAYOUT
  5
22
102
{ACAD_REACTORS
330
1A
102
}
330
1A
100
AcDbPlotSettings
  1

  2
none_device
  4

  6

 40
0.0
 41
0.0
 42
0.0
 43
0.0
 44
0.0
 45
0.0
 46
0.0
 47
0.0
 48
0.0
 49
0.0
140
0.0
141
0.0
142
1.0
143
1.0
 70
  1712
 72
     0
 73
     0
 74
     0
  7

 75
     0
 76
     0
 77
     2
 78
   300
147
1.0
148
0.0
149
0.0
100
AcDbLayout
  1
Model
 70
     1
 71
     0
 10
0.0
 20
0.0
 11
12.0
 21
9.0
 12
0.0
 22
0.0
 32
0.0
 14
1.000000000000000E+20
 24
1.000000000000000E+20
 34
1.000000000000000E+20
 15
-1.000000000000000E+20
 25
-1.000000000000000E+20
 35
-1.000000000000000E+20
146
0.0
 13
0.0
 23
0.0
 33
0.0
 16
1.0
 26
0.0
 36
0.0
 17
0.0
 27
1.0
 37
0.0
 76
     0
330
1F
331
29
  0
MLINESTYLE
  5
18
102
{ACAD_REACTORS
330
17
102
}
330
17
100
AcDbMlineStyle
  2
Standard
 70
     0
  3

 62
   256
 51
90.0
 52
90.0
 71
     2
 49
0.5
 62
   256
  6
BYLAYER
 49
-0.5
 62
   256
  6
BYLAYER
  0
ACDBPLACEHOLDER
  5
F
102
{ACAD_REACTORS
330
E
102
}
330
E
  0
VISUALSTYLE
  5
2F
102
{ACAD_REACTORS
330
2A
102
}
330
2A
100
AcDbVisualStyle
  2
2dWireframe
 70
     4
 71
     0
 72
     2
 73
     0
 90
        0
 40
-0.6
 41
-30.0
 62
     5
 63
     7
421
 16777215
 74
     1
 91
        4
 64
     7
 65
   257
 75
     1
175
     1
 42
1.0
 92
        0
 66
   257
 43
1.0
 76
     1
 77
     6
 78
     2
 67
     7
 79
     5
170
     0
171
     0
290
     0
174
     0
 93
        1
 44
0.0
173
     0
291
     0
 45
0.0
1001
ACAD
1000
AcDbSavedByObjectVersion
1070
     0
  0
VISUALSTYLE
  5
31
102
{ACAD_REACTORS
330
2A
102
}
330
2A
100
AcDbVisualStyle
  2
3D Hidden
 70
     6
 71
     1
 72
     2
 73
     2
 90
        0
 40
-0.6
 41
-30.0
 62
     5
 63
     7
421
 16777215
 74
     2
 91
        2
 64
     7
 65
   257
 75
     2
175
     1
 42
40.0
 92
        0
 66
   257
 43
1.0
 76
     1
 77
     6
 78
     2
 67
     7
 79
     3
170
     0
171
     0
290
     0
174
     0
 93
        1
 44
0.0
173
     0
291
     0
 45
0.0
1001
ACAD
1000
AcDbSavedByObjectVersion
1070
     0
  0
VISUALSTYLE
  5
30
102
{ACAD_REACTORS
330
2A
102
}
330
2A
100
AcDbVisualStyle
  2
3dWireframe
 70
     5
 71
     0
 72
     2
 73
     0
 90
        0
 40
-0.6
 41
-30.0
 62
     5
 63
     7
421
 16777215
 74
     1
 91
        4
 64
     7
 65
   257
 75
     1
175
     1
 42
1.0
 92
        0
 66
   257
 43
1.0
 76
     1
 77
     6
 78
     2
 67
     7
 79
     5
170
     0
171
     0
290
     0
174
     0
 93
        1
 44
0.0
173
     0
291
     0
 45
0.0
1001
ACAD
1000
AcDbSavedByObjectVersion
1070
     0
  0
VISUALSTYLE
  5
32
102
{ACAD_REACTORS
330
2A
102
}
330
2A
100
AcDbVisualStyle
  2
Basic
 70
     7
 71
     1
 72
     0
 73
     1
 90
        0
 40
-0.6
 41
-30.0
 62
     5
 63
     7
421
 16777215
 74
     0
 91
        4
 64
     7
 65
   257
 75
     1
175
     1
 42
1.0
 92
        8
 66
     7
 43
1.0
 76
     1
 77
     6
 78
     2
 67
     7
 79
     5
170
     0
171
     0
290
     0
174
     0
 93
        1
 44
0.0
173
     0
291
     1
 45
0.0
1001
ACAD
1000
AcDbSavedByObjectVersion
1070
     0
  0
VISUALSTYLE
  5
36
102
{ACAD_REACTORS
330
2A
102
}
330
2A
100
AcDbVisualStyle
  2
Brighten
 70
    12
 71
     2
 72
     2
 73
     0
 90
        0
 40
-0.6
 41
-30.0
 62
     5
 63
     7
421
 16777215
 74
     1
 91
        4
 64
     7
 65
   257
 75
     1
175
     1
 42
1.0
 92
        8
 66
     7
 43
1.0
 76
     1
 77
     6
 78
     2
 67
     7
 79
     5
170
     0
171
     0
290
     0
174
     0
 93
        1
 44
50.0
173
     0
291
     1
 45
0.0
1001
ACAD
1000
AcDbSavedByObjectVersion
1070
     0
  0
VISUALSTYLE
  5
3A
102
{ACAD_REACTORS
330
2A
102
}
330
2A
100
AcDbVisualStyle
  2
ColorChange
 70
    16
 71
     2
 72
     2
 73
     3
 90
        0
 40
-0.6
 41
-30.0
 62
     5
 63
     8
421
  8421504
 74
     1
 91
        4
 64
     7
 65
   257
 75
     1
175
     1
 42
1.0
 92
        8
 66
     8
424
  8421504
 43
1.0
 76
     1
 77
     6
 78
     2
 67
     7
 79
     5
170
     0
171
     0
290
     0
174
     0
 93
        1
 44
0.0
173
     0
291
     1
 45
0.0
1001
ACAD
1000
AcDbSavedByObjectVersion
1070
     0
  0
VISUALSTYLE
  5
34
102
{ACAD_REACTORS
330
2A
102
}
330
2A
100
AcDbVisualStyle
  2
Conceptual
 70
     9
 71
     3
 72
     2
 73
     0
 90
        0
 40
-0.6
 41
-30.0
 62
     5
 63
     7
421
 16777215
 74
     2
 91
        2
 64
     7
 65
   257
 75
     1
175
     1
 42
40.0
 92
        8
 66
     7
 43
1.0
 76
     1
 77
     6
 78
     2
 67
     7
 79
     3
170
     0
171
     0
290
     0
174
     0
 93
        1
 44
0.0
173
     0
291
     0
 45
0.0
1001
ACAD
1000
AcDbSavedByObjectVersion
1070
     0
  0
VISUALSTYLE
  5
35
102
{ACAD_REACTORS
330
2A
102
}
330
2A
100
AcDbVisualStyle
  2
Dim
 70
    11
 71
     2
 72
     2
 73
     0
 90
        0
 40
-0.6
 41
-30.0
 62
     5
 63
     7
421
 16777215
 74
     1
 91
        4
 64
     7
 65
   257
 75
     1
175
     1
 42
1.0
 92
        8
 66
     7
 43
1.0
 76
     1
 77
     6
 78
     2
 67
     7
 79
     5
170
     0
171
     0
290
     0
174
     0
 93
        1
 44
-50.0
173
     0
291
     1
 45
0.0
1001
ACAD
1000
AcDbSavedByObjectVersion
1070
     0
  0
VISUALSTYLE
  5
39
102
{ACAD_REACTORS
330
2A
102
}
330
2A
100
AcDbVisualStyle
  2
Facepattern
 70
    15
 71
     2
 72
     2
 73
     0
 90
        0
 40
-0.6
 41
-30.0
 62
     5
 63
     7
421
 16777215
 74
     1
 91
        4
 64
     7
 65
   257
 75
     1
175
     1
 42
1.0
 92
        8
 66
     7
 43
1.0
 76
     1
 77
     6
 78
     2
 67
     7
 79
     5
170
     0
171
     0
290
     0
174
     0
 93
        1
 44
0.0
173
     0
291
     1
 45
0.0
1001
ACAD
1000
AcDbSavedByObjectVersion
1070
     0
  0
VISUALSTYLE
  5
2B
102
{ACAD_REACTORS
330
2A
102
}
330
2A
100
AcDbVisualStyle
  2
Flat
 70
     0
 71
     2
 72
     1
 73
     1
 90
        2
 40
-0.6
 41
30.0
 62
     5
 63
     7
421
 16777215
 74
     0
 91
        4
 64
     7
 65
   257
 75
     1
175
     1
 42
1.0
 92
        8
 66
     7
 43
1.0
 76
     1
 77
     6
 78
     2
 67
     7
 79
     5
170
     0
171
     0
290
     0
174
     0
 93
       13
 44
0.0
173
     0
291
     1
 45
0.0
1001
ACAD
1000
AcDbSavedByObjectVersion
1070
     0
  0
VISUALSTYLE
  5
2C
102
{ACAD_REACTORS
330
2A
102
}
330
2A
100
AcDbVisualStyle
  2
FlatWithEdges
 70
     1
 71
     2
 72
     1
 73
     1
 90
        2
 40
-0.6
 41
30.0
 62
     5
 63
     7
421
 16777215
 74
     1
 91
        4
 64
     7
 65
   257
 75
     1
175
     1
 42
1.0
 92
        0
 66
   257
 43
1.0
 76
     1
 77
     6
 78
     2
 67
     7
 79
     5
170
     0
171
     0
290
     0
174
     0
 93
       13
 44
0.0
173
     0
291
     1
 45
0.0
1001
ACAD
1000
AcDbSavedByObjectVersion
1070
     0
  0
VISUALSTYLE
  5
2D
102
{ACAD_REACTORS
330
2A
102
}
330
2A
100
AcDbVisualStyle
  2
Gouraud
 70
     2
 71
     2
 72
     2
 73
     1
 90
        2
 40
-0.6
 41
30.0
 62
     5
 63
     7
421
 16777215
 74
     0
 91
        4
 64
     7
 65
   257
 75
     1
175
     1
 42
1.0
 92
        0
 66
     7
 43
1.0
 76
     1
 77
     6
 78
     2
 67
     7
 79
     5
170
     0
171
     0
290
     0
174
     0
 93
       13
 44
0.0
173
     0
291
     1
 45
0.0
1001
ACAD
1000
AcDbSavedByObjectVersion
1070
     0
  0
VISUALSTYLE
  5
2E
102
{ACAD_REACTORS
330
2A
102
}
330
2A
100
AcDbVisualStyle
  2
GouraudWithEdges
 70
     3
 71
     2
 72
     2
 73
     1
 90
        2
 40
-0.6
 41
30.0
 62
     5
 63
     7
421
 16777215
 74
     1
 91
        4
 64
     7
 65
   257
 75
     1
175
     1
 42
1.0
 92
        0
 66
   257
 43
1.0
 76
     1
 77
     6
 78
     2
 67
     7
 79
     5
170
     0
171
     0
290
     0
174
     0
 93
       13
 44
0.0
173
     0
291
     1
 45
0.0
1001
ACAD
1000
AcDbSavedByObjectVersion
1070
     0
  0
VISUALSTYLE
  5
38
102
{ACAD_REACTORS
330
2A
102
}
330
2A
100
AcDbVisualStyle
  2
Linepattern
 70
    14
 71
     2
 72
     2
 73
     0
 90
        0
 40
-0.6
 41
-30.0
 62
     5
 63
     7
421
 16777215
 74
     1
 91
        4
 64
     7
 65
   257
 75
     7
175
     7
 42
1.0
 92
        8
 66
     7
 43
1.0
 76
     1
 77
     6
 78
     2
 67
     7
 79
     5
170
     0
171
     0
290
     0
174
     0
 93
        1
 44
0.0
173
     0
291
     1
 45
0.0
1001
ACAD
1000
AcDbSavedByObjectVersion
1070
     0
  0
VISUALSTYLE
  5
33
102
{ACAD_REACTORS
330
2A
102
}
330
2A
100
AcDbVisualStyle
  2
Realistic
 70
     8
 71
     2
 72
     2
 73
     0
 90
        0
 40
-0.6
 41
-30.0
 62
     5
 63
     7
421
 16777215
 74
     1
 91
        0
 64
     7
 65
   257
 75
     1
175
     1
 42
1.0
 92
        8
 66
     8
424
  7895160
 43
1.0
 76
     1
 77
     6
 78
     2
 67
     7
 79
     5
170
     0
171
     0
290
     0
174
     0
 93
       13
 44
0.0
173
     0
291
     0
 45
0.0
1001
ACAD
1000
AcDbSavedByObjectVersion
1070
     0
  0
VISUALSTYLE
  5
37
102
{ACAD_REACTORS
330
2A
102
}
330
2A
100
AcDbVisualStyle
  2
Thicken
 70
    13
 71
     2
 72
     2
 73
     0
 90
        0
 40
-0.6
 41
-30.0
 62
     5
 63
     7
421
 16777215
 74
     1
 91
        4
 64
     7
 65
   257
 75
     1
175
     1
 42
1.0
 92
       12
 66
     7
 43
1.0
 76
     1
 77
     6
 78
     2
 67
     7
 79
     5
170
     0
171
     0
290
     0
174
     0
 93
        1
 44
0.0
173
     0
291
     1
 45
0.0
1001
ACAD
1000
AcDbSavedByObjectVersion
1070
     0
  0
ENDSEC
  0
EOF
